<mxfile host="app.diagrams.net" modified="2021-10-12T12:34:22.661Z" agent="5.0 (Macintosh; Intel Mac OS X 10_15_7) AppleWebKit/605.1.15 (KHTML, like Gecko) Version/15.0 Safari/605.1.15" etag="BxLRWMf2r4xZQEZObNkh" version="15.4.3" type="github">
  <diagram id="R2lEEEUBdFMjLlhIrx00" name="Page-1">
    <mxGraphModel dx="2104" dy="791" grid="1" gridSize="10" guides="1" tooltips="1" connect="1" arrows="1" fold="1" page="1" pageScale="1" pageWidth="850" pageHeight="1100" math="0" shadow="0" extFonts="Permanent Marker^https://fonts.googleapis.com/css?family=Permanent+Marker">
      <root>
        <mxCell id="0" />
        <mxCell id="1" parent="0" />
        <mxCell id="BJwRltKRfU0N0JA3AE58-8" style="edgeStyle=orthogonalEdgeStyle;rounded=0;orthogonalLoop=1;jettySize=auto;html=1;entryX=0;entryY=0.5;entryDx=0;entryDy=0;endArrow=none;endFill=0;" edge="1" parent="1" source="BJwRltKRfU0N0JA3AE58-1" target="BJwRltKRfU0N0JA3AE58-6">
          <mxGeometry relative="1" as="geometry" />
        </mxCell>
        <mxCell id="BJwRltKRfU0N0JA3AE58-9" style="edgeStyle=orthogonalEdgeStyle;rounded=0;orthogonalLoop=1;jettySize=auto;html=1;entryX=0;entryY=0.5;entryDx=0;entryDy=0;endArrow=none;endFill=0;" edge="1" parent="1" source="BJwRltKRfU0N0JA3AE58-1" target="BJwRltKRfU0N0JA3AE58-7">
          <mxGeometry relative="1" as="geometry" />
        </mxCell>
        <mxCell id="BJwRltKRfU0N0JA3AE58-11" style="edgeStyle=orthogonalEdgeStyle;rounded=0;orthogonalLoop=1;jettySize=auto;html=1;entryX=0;entryY=0.5;entryDx=0;entryDy=0;endArrow=none;endFill=0;" edge="1" parent="1" source="BJwRltKRfU0N0JA3AE58-1" target="BJwRltKRfU0N0JA3AE58-10">
          <mxGeometry relative="1" as="geometry" />
        </mxCell>
        <mxCell id="BJwRltKRfU0N0JA3AE58-13" style="edgeStyle=orthogonalEdgeStyle;rounded=0;orthogonalLoop=1;jettySize=auto;html=1;entryX=0;entryY=0.5;entryDx=0;entryDy=0;endArrow=none;endFill=0;exitX=1;exitY=0.5;exitDx=0;exitDy=0;" edge="1" parent="1" source="BJwRltKRfU0N0JA3AE58-1" target="BJwRltKRfU0N0JA3AE58-12">
          <mxGeometry relative="1" as="geometry" />
        </mxCell>
        <mxCell id="BJwRltKRfU0N0JA3AE58-1" value="Alumnos" style="whiteSpace=wrap;html=1;align=center;" vertex="1" parent="1">
          <mxGeometry x="-40" y="190" width="265" height="90" as="geometry" />
        </mxCell>
        <mxCell id="BJwRltKRfU0N0JA3AE58-2" value="Relationship" style="shape=rhombus;perimeter=rhombusPerimeter;whiteSpace=wrap;html=1;align=center;" vertex="1" parent="1">
          <mxGeometry x="-112.5" y="785" width="230" height="130" as="geometry" />
        </mxCell>
        <mxCell id="BJwRltKRfU0N0JA3AE58-4" style="edgeStyle=orthogonalEdgeStyle;rounded=0;orthogonalLoop=1;jettySize=auto;html=1;entryX=1;entryY=0.5;entryDx=0;entryDy=0;endArrow=none;endFill=0;" edge="1" parent="1" source="BJwRltKRfU0N0JA3AE58-3" target="BJwRltKRfU0N0JA3AE58-1">
          <mxGeometry relative="1" as="geometry" />
        </mxCell>
        <mxCell id="BJwRltKRfU0N0JA3AE58-3" value="Nombre" style="ellipse;whiteSpace=wrap;html=1;align=center;" vertex="1" parent="1">
          <mxGeometry x="400" y="130" width="100" height="40" as="geometry" />
        </mxCell>
        <mxCell id="BJwRltKRfU0N0JA3AE58-6" value="Apellido1" style="ellipse;whiteSpace=wrap;html=1;align=center;" vertex="1" parent="1">
          <mxGeometry x="400" y="190" width="100" height="40" as="geometry" />
        </mxCell>
        <mxCell id="BJwRltKRfU0N0JA3AE58-7" value="Apellido2" style="ellipse;whiteSpace=wrap;html=1;align=center;" vertex="1" parent="1">
          <mxGeometry x="400" y="260" width="100" height="40" as="geometry" />
        </mxCell>
        <mxCell id="BJwRltKRfU0N0JA3AE58-10" value="#Expediente" style="ellipse;whiteSpace=wrap;html=1;align=center;" vertex="1" parent="1">
          <mxGeometry x="400" y="320" width="100" height="40" as="geometry" />
        </mxCell>
        <mxCell id="BJwRltKRfU0N0JA3AE58-12" value="NIF" style="ellipse;whiteSpace=wrap;html=1;align=center;" vertex="1" parent="1">
          <mxGeometry x="400" y="370" width="100" height="40" as="geometry" />
        </mxCell>
        <mxCell id="BJwRltKRfU0N0JA3AE58-14" value="&lt;h1&gt;&lt;u&gt;Entidad y Ocurrencia&lt;/u&gt;&amp;nbsp;&lt;/h1&gt;&lt;h1&gt;Conjunto Entidad y Entidad&lt;/h1&gt;" style="text;html=1;strokeColor=none;fillColor=none;spacing=5;spacingTop=-20;whiteSpace=wrap;overflow=hidden;rounded=0;" vertex="1" parent="1">
          <mxGeometry x="540" y="140" width="350" height="100" as="geometry" />
        </mxCell>
        <mxCell id="BJwRltKRfU0N0JA3AE58-21" value="" style="edgeStyle=orthogonalEdgeStyle;rounded=0;orthogonalLoop=1;jettySize=auto;html=1;endArrow=none;endFill=0;entryX=0;entryY=0.5;entryDx=0;entryDy=0;exitX=1;exitY=0.5;exitDx=0;exitDy=0;" edge="1" parent="1" source="BJwRltKRfU0N0JA3AE58-45" target="BJwRltKRfU0N0JA3AE58-20">
          <mxGeometry relative="1" as="geometry">
            <mxPoint x="960" y="410" as="sourcePoint" />
          </mxGeometry>
        </mxCell>
        <mxCell id="BJwRltKRfU0N0JA3AE58-24" value="" style="edgeStyle=orthogonalEdgeStyle;rounded=0;orthogonalLoop=1;jettySize=auto;html=1;endArrow=none;endFill=0;entryX=0;entryY=0.5;entryDx=0;entryDy=0;" edge="1" parent="1" source="BJwRltKRfU0N0JA3AE58-15" target="BJwRltKRfU0N0JA3AE58-23">
          <mxGeometry relative="1" as="geometry" />
        </mxCell>
        <mxCell id="BJwRltKRfU0N0JA3AE58-26" style="edgeStyle=orthogonalEdgeStyle;rounded=0;orthogonalLoop=1;jettySize=auto;html=1;entryX=0;entryY=0.5;entryDx=0;entryDy=0;endArrow=none;endFill=0;" edge="1" parent="1" source="BJwRltKRfU0N0JA3AE58-15" target="BJwRltKRfU0N0JA3AE58-25">
          <mxGeometry relative="1" as="geometry" />
        </mxCell>
        <mxCell id="BJwRltKRfU0N0JA3AE58-28" style="edgeStyle=orthogonalEdgeStyle;rounded=0;orthogonalLoop=1;jettySize=auto;html=1;entryX=0;entryY=0.5;entryDx=0;entryDy=0;endArrow=none;endFill=0;" edge="1" parent="1" source="BJwRltKRfU0N0JA3AE58-15" target="BJwRltKRfU0N0JA3AE58-27">
          <mxGeometry relative="1" as="geometry" />
        </mxCell>
        <mxCell id="BJwRltKRfU0N0JA3AE58-30" style="edgeStyle=orthogonalEdgeStyle;rounded=0;orthogonalLoop=1;jettySize=auto;html=1;entryX=0;entryY=0.5;entryDx=0;entryDy=0;endArrow=none;endFill=0;" edge="1" parent="1" source="BJwRltKRfU0N0JA3AE58-15" target="BJwRltKRfU0N0JA3AE58-29">
          <mxGeometry relative="1" as="geometry" />
        </mxCell>
        <mxCell id="BJwRltKRfU0N0JA3AE58-33" style="edgeStyle=orthogonalEdgeStyle;rounded=0;orthogonalLoop=1;jettySize=auto;html=1;entryX=0;entryY=0.5;entryDx=0;entryDy=0;endArrow=none;endFill=0;exitX=1;exitY=0.5;exitDx=0;exitDy=0;" edge="1" parent="1" source="BJwRltKRfU0N0JA3AE58-45" target="BJwRltKRfU0N0JA3AE58-31">
          <mxGeometry relative="1" as="geometry">
            <mxPoint x="960" y="410" as="sourcePoint" />
          </mxGeometry>
        </mxCell>
        <mxCell id="BJwRltKRfU0N0JA3AE58-34" style="edgeStyle=orthogonalEdgeStyle;rounded=0;orthogonalLoop=1;jettySize=auto;html=1;entryX=0;entryY=0.5;entryDx=0;entryDy=0;endArrow=none;endFill=0;exitX=1;exitY=0.5;exitDx=0;exitDy=0;" edge="1" parent="1" source="BJwRltKRfU0N0JA3AE58-45" target="BJwRltKRfU0N0JA3AE58-32">
          <mxGeometry relative="1" as="geometry">
            <mxPoint x="960" y="410" as="sourcePoint" />
          </mxGeometry>
        </mxCell>
        <mxCell id="BJwRltKRfU0N0JA3AE58-15" value="MÃ©dicos" style="whiteSpace=wrap;html=1;align=center;" vertex="1" parent="1">
          <mxGeometry x="-80" y="620" width="265" height="90" as="geometry" />
        </mxCell>
        <mxCell id="BJwRltKRfU0N0JA3AE58-38" style="edgeStyle=orthogonalEdgeStyle;rounded=0;orthogonalLoop=1;jettySize=auto;html=1;entryX=0;entryY=0.5;entryDx=0;entryDy=0;endArrow=none;endFill=0;" edge="1" parent="1" source="BJwRltKRfU0N0JA3AE58-16" target="BJwRltKRfU0N0JA3AE58-35">
          <mxGeometry relative="1" as="geometry" />
        </mxCell>
        <mxCell id="BJwRltKRfU0N0JA3AE58-39" style="edgeStyle=orthogonalEdgeStyle;rounded=0;orthogonalLoop=1;jettySize=auto;html=1;entryX=0;entryY=0.5;entryDx=0;entryDy=0;endArrow=none;endFill=0;" edge="1" parent="1" source="BJwRltKRfU0N0JA3AE58-16" target="BJwRltKRfU0N0JA3AE58-36">
          <mxGeometry relative="1" as="geometry" />
        </mxCell>
        <mxCell id="BJwRltKRfU0N0JA3AE58-40" style="edgeStyle=orthogonalEdgeStyle;rounded=0;orthogonalLoop=1;jettySize=auto;html=1;entryX=0;entryY=0.5;entryDx=0;entryDy=0;endArrow=none;endFill=0;" edge="1" parent="1" source="BJwRltKRfU0N0JA3AE58-16" target="BJwRltKRfU0N0JA3AE58-37">
          <mxGeometry relative="1" as="geometry" />
        </mxCell>
        <mxCell id="BJwRltKRfU0N0JA3AE58-42" style="edgeStyle=orthogonalEdgeStyle;rounded=0;orthogonalLoop=1;jettySize=auto;html=1;entryX=0;entryY=0.5;entryDx=0;entryDy=0;endArrow=none;endFill=0;" edge="1" parent="1" source="BJwRltKRfU0N0JA3AE58-16" target="BJwRltKRfU0N0JA3AE58-41">
          <mxGeometry relative="1" as="geometry" />
        </mxCell>
        <mxCell id="BJwRltKRfU0N0JA3AE58-16" value="Pacientes" style="whiteSpace=wrap;html=1;align=center;" vertex="1" parent="1">
          <mxGeometry x="370" y="520" width="265" height="90" as="geometry" />
        </mxCell>
        <mxCell id="BJwRltKRfU0N0JA3AE58-17" value="Citas" style="whiteSpace=wrap;html=1;align=center;" vertex="1" parent="1">
          <mxGeometry x="-90" y="980" width="265" height="90" as="geometry" />
        </mxCell>
        <mxCell id="BJwRltKRfU0N0JA3AE58-18" value="Consultas" style="whiteSpace=wrap;html=1;align=center;" vertex="1" parent="1">
          <mxGeometry x="235" y="980" width="265" height="90" as="geometry" />
        </mxCell>
        <mxCell id="BJwRltKRfU0N0JA3AE58-20" value="Nombre" style="ellipse;whiteSpace=wrap;html=1;" vertex="1" parent="1">
          <mxGeometry x="1045" y="280" width="120" height="60" as="geometry" />
        </mxCell>
        <mxCell id="BJwRltKRfU0N0JA3AE58-23" value="#Colegiado" style="ellipse;whiteSpace=wrap;html=1;" vertex="1" parent="1">
          <mxGeometry x="260" y="670" width="120" height="60" as="geometry" />
        </mxCell>
        <mxCell id="BJwRltKRfU0N0JA3AE58-25" value="Centro de salud" style="ellipse;whiteSpace=wrap;html=1;" vertex="1" parent="1">
          <mxGeometry x="260" y="740" width="120" height="60" as="geometry" />
        </mxCell>
        <mxCell id="BJwRltKRfU0N0JA3AE58-27" value="Consulta" style="ellipse;whiteSpace=wrap;html=1;" vertex="1" parent="1">
          <mxGeometry x="260" y="820" width="120" height="60" as="geometry" />
        </mxCell>
        <mxCell id="BJwRltKRfU0N0JA3AE58-29" value="Sueldo" style="ellipse;whiteSpace=wrap;html=1;" vertex="1" parent="1">
          <mxGeometry x="260" y="890" width="120" height="60" as="geometry" />
        </mxCell>
        <mxCell id="BJwRltKRfU0N0JA3AE58-31" value="Apellido1" style="ellipse;whiteSpace=wrap;html=1;align=center;" vertex="1" parent="1">
          <mxGeometry x="1045" y="345" width="100" height="40" as="geometry" />
        </mxCell>
        <mxCell id="BJwRltKRfU0N0JA3AE58-32" value="Apellido2" style="ellipse;whiteSpace=wrap;html=1;align=center;" vertex="1" parent="1">
          <mxGeometry x="1045" y="405" width="100" height="40" as="geometry" />
        </mxCell>
        <mxCell id="BJwRltKRfU0N0JA3AE58-35" value="Nombre" style="ellipse;whiteSpace=wrap;html=1;" vertex="1" parent="1">
          <mxGeometry x="850" y="490" width="120" height="60" as="geometry" />
        </mxCell>
        <mxCell id="BJwRltKRfU0N0JA3AE58-36" value="Apellido1" style="ellipse;whiteSpace=wrap;html=1;align=center;" vertex="1" parent="1">
          <mxGeometry x="850" y="570" width="100" height="40" as="geometry" />
        </mxCell>
        <mxCell id="BJwRltKRfU0N0JA3AE58-37" value="Apellido2" style="ellipse;whiteSpace=wrap;html=1;align=center;" vertex="1" parent="1">
          <mxGeometry x="850" y="630" width="100" height="40" as="geometry" />
        </mxCell>
        <mxCell id="BJwRltKRfU0N0JA3AE58-41" value="Enfermedades" style="ellipse;whiteSpace=wrap;html=1;align=center;" vertex="1" parent="1">
          <mxGeometry x="850" y="710" width="100" height="40" as="geometry" />
        </mxCell>
        <mxCell id="BJwRltKRfU0N0JA3AE58-43" value="#seg. Social" style="ellipse;whiteSpace=wrap;html=1;align=center;" vertex="1" parent="1">
          <mxGeometry x="850" y="780" width="100" height="40" as="geometry" />
        </mxCell>
        <mxCell id="BJwRltKRfU0N0JA3AE58-45" value="Personas" style="whiteSpace=wrap;html=1;align=center;" vertex="1" parent="1">
          <mxGeometry x="540" y="345" width="265" height="90" as="geometry" />
        </mxCell>
        <mxCell id="BJwRltKRfU0N0JA3AE58-46" style="edgeStyle=orthogonalEdgeStyle;rounded=0;orthogonalLoop=1;jettySize=auto;html=1;entryX=0;entryY=0.5;entryDx=0;entryDy=0;endArrow=none;endFill=0;exitX=1;exitY=0.5;exitDx=0;exitDy=0;" edge="1" parent="1" source="BJwRltKRfU0N0JA3AE58-16" target="BJwRltKRfU0N0JA3AE58-43">
          <mxGeometry relative="1" as="geometry">
            <mxPoint x="615" y="625" as="sourcePoint" />
            <mxPoint x="850.00000000001" y="770" as="targetPoint" />
          </mxGeometry>
        </mxCell>
      </root>
    </mxGraphModel>
  </diagram>
</mxfile>
